<?xml version="1.0" standalone="no"?>
<!DOCTYPE svg PUBLIC "-//W3C//DTD SVG 20010904//EN"
 "http://www.w3.org/TR/2001/REC-SVG-20010904/DTD/svg10.dtd">
<svg version="1.0" xmlns="http://www.w3.org/2000/svg"
 width="700.000000pt" height="700.000000pt" viewBox="0 0 700.000000 700.000000"
 preserveAspectRatio="xMidYMid meet">
<metadata>
Created by potrace 1.14, written by Peter Selinger 2001-2017
</metadata>
<g transform="translate(0.000000,700.000000) scale(0.100000,-0.100000)"
fill="#000000" stroke="none">
<path d="M5843 6977 c-34 -18 -116 -87 -227 -192 -6 -6 -60 -56 -121 -110 -60
-55 -112 -102 -115 -105 -3 -3 -57 -52 -120 -110 -63 -58 -117 -107 -120 -110
-4 -5 -72 -66 -274 -250 -21 -19 -51 -46 -66 -60 -15 -14 -67 -61 -115 -105
-49 -44 -100 -91 -115 -105 -15 -14 -67 -61 -115 -105 -49 -44 -98 -89 -109
-100 -12 -11 -68 -63 -126 -114 -58 -52 -107 -98 -110 -101 -3 -3 -54 -51
-115 -106 -109 -98 -167 -151 -229 -209 -36 -33 -199 -181 -226 -205 -9 -8
-59 -53 -110 -100 -51 -47 -104 -96 -119 -109 -14 -13 -53 -49 -87 -80 -33
-31 -100 -92 -148 -136 -101 -92 -100 -90 -231 -210 -54 -49 -103 -95 -109
-100 -6 -6 -60 -55 -121 -110 -60 -55 -132 -121 -160 -146 -27 -26 -61 -57
-75 -69 -14 -12 -72 -65 -130 -118 -58 -53 -127 -117 -155 -142 -199 -179
-222 -213 -212 -320 7 -79 44 -135 115 -172 l53 -27 456 -1 c251 0 457 -1 458
-3 2 -2 -286 -510 -305 -537 -5 -8 -17 -28 -26 -45 -9 -16 -98 -172 -197 -345
-99 -173 -216 -378 -260 -455 -44 -77 -87 -153 -97 -170 -106 -186 -670 -1176
-680 -1194 -7 -13 -14 -47 -17 -75 -4 -42 1 -61 24 -106 38 -74 90 -110 170
-117 89 -8 133 16 261 141 59 57 127 123 152 146 25 23 130 124 234 224 104
99 212 204 241 231 67 64 427 409 475 455 20 19 119 114 219 210 100 96 208
199 239 229 31 30 145 138 252 241 107 103 218 210 246 236 28 27 138 132 244
234 228 218 240 230 491 470 174 167 299 287 474 455 33 31 131 125 219 209
413 394 416 397 416 495 0 102 -75 198 -169 216 -9 2 -219 4 -468 4 l-451 1
21 39 c24 44 67 116 366 615 112 186 210 352 220 368 9 15 118 198 242 406
540 901 633 1059 644 1097 52 175 -142 337 -302 252z"/>
</g>
</svg>
